PathFileType	4	(X/Y/Z)	./resultDataOpenSim/trcMotMarkerGrf/sub06/qtm-12-08.trc
DataRate	CameraRate	NumFrames	NumMarkers	Units	OrigDataRate	OrigDataStartFrame	OrigNumFrames
250.000000	250.000000	13	24	m	250.000000	455	519
Frame#	Time	L.Toe.Tip			R.Toe.Tip			L.Ankle.Lat			R.Ankle.Lat			L.Ankle.Med			R.Ankle.Med			L.Heel			R.Heel			L.Knee.Lat			R.Knee.Lat			L.Knee.Med			R.Knee.Med			L.Thigh.Upper			R.Thigh.Upper			L.ASIS			R.ASIS			V.Sacral			L.Acromium			R.Acromium			C7			L.Elbow			R.Elbow			L.Wrist.Lat			R.Wrist.Lat
		X1	Y1	Z1	X2	Y2	Z2	X3	Y3	Z3	X4	Y4	Z4	X5	Y5	Z5	X6	Y6	Z6	X7	Y7	Z7	X8	Y8	Z8	X9	Y9	Z9	X10	Y10	Z10	X11	Y11	Z11	X12	Y12	Z12	X13	Y13	Z13	X14	Y14	Z14	X15	Y15	Z15	X16	Y16	Z16	X17	Y17	Z17	X18	Y18	Z18	X19	Y19	Z19	X20	Y20	Z20	X21	Y21	Z21	X22	Y22	Z22	X23	Y23	Z23	X24	Y24	Z24

455	1.816	1.6851996	0.034219876	-0.057011494	1.4059733	0.076183743	0.13746974	1.5612251	0.068103382	-0.087337487	1.3501653	0.20158264	0.14149542	1.5600274	0.083355054	-0.00079431292	1.3915499	0.19397296	0.063139726	1.484382	0.042449866	-0.046424456	1.3095129	0.22378108	0.070045112	1.6514129	0.43435315	-0.097486392	1.638516	0.44354846	0.18031778	1.6129664	0.43445427	0.017961522	1.6513811	0.42131922	0.046538248	1.5733194	0.82359361	-0.17310992	1.5268467	0.79265229	0.16709793	1.6358826	0.86863092	-0.11873745	1.6134028	0.85473906	0.12717494	1.4363388	0.9351072	-0.003633073	1.5474059	1.3347214	-0.19333542	1.5398414	1.3410107	0.16929542	1.4656112	1.3731405	-0.017384883	1.4787936	1.0222152	-0.24003577	1.4711105	1.0284209	0.24623446	1.6144463	0.81929335	-0.28129225	1.6483351	0.85637865	0.24942111
456	1.82	1.6852534	0.034222358	-0.057021112	1.4248351	0.075311472	0.13808159	1.561245	0.068327028	-0.087359338	1.3648549	0.19870267	0.14117826	1.5601224	0.083593525	-0.00080230508	1.4064221	0.19190474	0.062696362	1.4844573	0.042760634	-0.046360375	1.3235797	0.21950427	0.06959667	1.6519434	0.43443723	-0.097368791	1.6488167	0.44639501	0.17987858	1.612622	0.43491603	0.018168014	1.661282	0.42517608	0.045971347	1.5784519	0.82465974	-0.17313044	1.5313642	0.79517139	0.16818232	1.64105	0.87003305	-0.11907888	1.619407	0.85686193	0.12662788	1.4416806	0.93643552	-0.0036480774	1.5531983	1.3367133	-0.19331635	1.5451358	1.3423762	0.16919728	1.470988	1.3745065	-0.017546372	1.4868498	1.0233258	-0.24072026	1.4739351	1.0303255	0.24561816	1.6267881	0.82240814	-0.28076063	1.648745	0.85602173	0.2503163
457	1.824	1.6853059	0.03421889	-0.05703846	1.4439925	0.074441312	0.1386354	1.5612696	0.068542835	-0.087376607	1.379612	0.19567124	0.14092756	1.5601065	0.083823711	-0.00083641634	1.4213756	0.18968212	0.062334255	1.4845481	0.04307163	-0.046284508	1.3377469	0.2150371	0.069258771	1.6524662	0.43452392	-0.09728964	1.658968	0.4492024	0.17941655	1.6122462	0.43543633	0.018434608	1.6708038	0.42895777	0.045390355	1.5835441	0.82569095	-0.17314838	1.5367451	0.79752624	0.16910046	1.646201	0.87139321	-0.11940875	1.6253913	0.85895226	0.1260751	1.4470644	0.9377092	-0.0036082686	1.558973	1.3386006	-0.19327002	1.550432	1.3436814	0.1691141	1.4763623	1.3758158	-0.017678182	1.4948425	1.0244215	-0.24136651	1.4768849	1.0322734	0.24501603	1.6388339	0.825607	-0.28022983	1.6491382	0.85569682	0.25120044
458	1.828	1.685353	0.034210552	-0.057061737	1.4631618	0.073531126	0.13913228	1.5613002	0.068756797	-0.087377949	1.3944562	0.19250814	0.1407513	1.5598447	0.084021575	-0.00088756944	1.4364306	0.18733084	0.062044263	1.4846472	0.04338752	-0.046183031	1.3519457	0.21037695	0.069043285	1.6529683	0.43461229	-0.097249718	1.6689938	0.45196615	0.1789365	1.6121516	0.43593493	0.018666332	1.6801938	0.43261489	0.044876002	1.5885907	0.82667544	-0.17316489	1.5431616	0.79970884	0.16972701	1.6513378	0.87270473	-0.11972607	1.6313478	0.86100719	0.12552575	1.4524716	0.93892409	-0.0035188733	1.5647409	1.3403948	-0.1931915	1.555729	1.3449202	0.16905619	1.4817351	1.3770698	-0.017782182	1.5027437	1.0255089	-0.24193196	1.4798341	1.0342145	0.2444312	1.650602	0.82888691	-0.27968954	1.6495172	0.8553974	0.25208669
459	1.832	1.6853975	0.034200486	-0.057088146	1.4820712	0.072535021	0.13957615	1.5613398	0.068979573	-0.08735824	1.4093961	0.1892269	0.14063506	1.5594596	0.084209057	-0.00092881224	1.4515956	0.18487273	0.061813382	1.4847475	0.04372526	-0.046049482	1.3661032	0.20552991	0.068946344	1.6534287	0.43470378	-0.097253204	1.6789151	0.45468032	0.17844002	1.6124568	0.43636646	0.018797156	1.6894564	0.43612816	0.044477131	1.5936044	0.82758949	-0.17317337	1.5499952	0.80173606	0.17005869	1.6564639	0.8739605	-0.1200297	1.6373232	0.86302026	0.12499619	1.4578776	0.9400754	-0.0033899972	1.5705076	1.34212	-0.19308831	1.5610276	1.3460881	0.16902671	1.4871085	1.3782702	-0.017865152	1.5105727	1.0265888	-0.24242054	1.4827592	1.0361018	0.243882	1.6620971	0.83225029	-0.27913891	1.6498826	0.85511287	0.25298494
460	1.836	1.685445	0.034191851	-0.057115511	1.5006648	0.071449553	0.13998268	1.5613921	0.069220708	-0.087321283	1.4244377	0.18583333	0.14055755	1.5592397	0.084441159	-0.00093453375	1.4668653	0.18231938	0.061630205	1.4848458	0.044101927	-0.045887352	1.380272	0.20052806	0.068936123	1.6538409	0.43480264	-0.097303069	1.6887201	0.45734265	0.17792305	1.6129977	0.43674858	0.01883849	1.6985325	0.43951469	0.044183244	1.598578	0.82841496	-0.173168	1.5565303	0.80359352	0.17010572	1.661581	0.87515431	-0.12031871	1.643332	0.86498442	0.12449285	1.4632664	0.94116545	-0.0032477512	1.5762693	1.3437891	-0.19297223	1.566328	1.3471842	0.16902045	1.4924834	1.3794166	-0.017931734	1.5184005	1.0276508	-0.24289967	1.4856541	1.03791	0.24338311	1.6732723	0.83570381	-0.27858528	1.6502238	0.85483602	0.25389084
461	1.84	1.6854997	0.034185602	-0.057143921	1.5190377	0.070299765	0.1403675	1.561459	0.069486945	-0.087277145	1.4395926	0.18233175	0.14050764	1.5593282	0.084754404	-0.00090969016	1.482226	0.17967976	0.061478344	1.4849482	0.044519028	-0.045706692	1.3947011	0.1954251	0.068976173	1.6542171	0.43491457	-0.097400058	1.6983908	0.45995165	0.17737431	1.6136031	0.43712429	0.018827838	1.7073904	0.44280284	0.043959477	1.6034444	0.8291461	-0.17315555	1.5625922	0.8052678	0.16995763	1.6666837	0.87628402	-0.12059343	1.6493427	0.86689674	0.12400689	1.468641	0.94220058	-0.0031421931	1.5820244	1.3454032	-0.19285551	1.5716246	1.3482156	0.16902723	1.4978572	1.380507	-0.017986496	1.5262867	1.0286832	-0.24344272	1.4884522	1.0396355	0.24291297	1.6842369	0.83922782	-0.27801852	1.6505287	0.85456675	0.25479663
462	1.844	1.6855633	0.034180468	-0.057176551	1.5373598	0.069107531	0.14073812	1.5615401	0.069781668	-0.087233622	1.4548825	0.17872465	0.14048711	1.559618	0.08514072	-0.00088074597	1.4976685	0.17696594	0.061340905	1.4850681	0.044960575	-0.045517318	1.4095632	0.19026784	0.069064372	1.6545805	0.43504654	-0.097540901	1.7079216	0.46250358	0.17678077	1.6142628	0.43752177	0.018782036	1.7160372	0.44601372	0.043763342	1.6080692	0.82978923	-0.17315913	1.5686803	0.80679009	0.16980964	1.671751	0.87735469	-0.12085661	1.6553276	0.86875567	0.12352575	1.474024	0.94317719	-0.0031320424	1.5877779	1.3469571	-0.1927474	1.5769111	1.349187	0.16903546	1.5032262	1.3815373	-0.018036123	1.5342364	1.0296818	-0.24407205	1.49108	1.0412832	0.24242484	1.6953324	0.8427642	-0.27740509	1.6508113	0.85430601	0.2557073
463	1.848	1.6856363	0.034174303	-0.057217554	1.5558188	0.067883727	0.1410933	1.5616342	0.07010242	-0.087188938	1.4703285	0.17501085	0.14050247	1.5599466	0.085570999	-0.00086324274	1.513214	0.1741869	0.061225289	1.4852124	0.045408259	-0.04532097	1.4245935	0.18507807	0.069242421	1.6549581	0.43520417	-0.097717094	1.7173106	0.46499188	0.17613786	1.6150479	0.43794445	0.018704749	1.7245111	0.44915558	0.043542012	1.6123731	0.83036271	-0.17319823	1.5752962	0.80821974	0.16983397	1.6767516	0.8783745	-0.12111254	1.6612885	0.87055357	0.12304704	1.4794586	0.94408129	-0.0032309542	1.5935364	1.3484437	-0.19264768	1.5821841	1.350092	0.16903737	1.5085881	1.3825019	-0.01808837	1.5422194	1.0306418	-0.24476277	1.4936093	1.0428542	0.2419007	1.7068614	0.84625704	-0.27671425	1.6511376	0.85404673	0.25664326
464	1.852	1.685719	0.034165412	-0.057268397	1.5745287	0.066648906	0.1414213	1.5617402	0.070440061	-0.087133996	1.4859419	0.17118981	0.14055728	1.5602526	0.086024404	-0.00085364587	1.5289289	0.17134355	0.061163287	1.485374	0.045853907	-0.045105763	1.4393408	0.17984449	0.069553625	1.6553685	0.43538704	-0.097918298	1.7265571	0.46740874	0.17545166	1.615997	0.43838221	0.018607651	1.732858	0.45222486	0.043251782	1.6165469	0.83088365	-0.17324734	1.5823615	0.80959982	0.17007484	1.6816736	0.87934015	-0.121362	1.6672457	0.87227461	0.12257827	1.4849743	0.94490389	-0.0033568254	1.5993002	1.3498568	-0.19254608	1.5874472	1.3509196	0.16903638	1.5139443	1.3833965	-0.01814391	1.5502063	1.0315528	-0.24547742	1.4962802	1.0443507	0.24137155	1.7187825	0.84970312	-0.27594722	1.6516009	0.85377483	0.25762307
465	1.856	1.6858098	0.03415334	-0.057326843	1.5934828	0.065447568	0.1417059	1.5618573	0.070783889	-0.087061431	1.501725	0.16726918	0.14064889	1.5605624	0.086497223	-0.00084100432	1.5448982	0.16843392	0.061160479	1.485543	0.046297826	-0.04485106	1.4539242	0.17446801	0.069948258	1.6558093	0.43558909	-0.098141121	1.7356669	0.4697491	0.17473145	1.6170978	0.4388246	0.018506496	1.7410843	0.45519874	0.042904423	1.620991	0.83135158	-0.17323944	1.5894422	0.81095072	0.17047759	1.6865543	0.88023095	-0.12159752	1.6732183	0.87390102	0.12212781	1.4905461	0.94564988	-0.0033729777	1.6050603	1.3511932	-0.19243112	1.5927153	1.3516644	0.16904618	1.5192975	1.38422	-0.018189215	1.558181	1.0324095	-0.24618784	1.4992808	1.0457867	0.24087523	1.7307666	0.85314921	-0.27513504	1.6522267	0.85348119	0.25863949
466	1.86	1.6859054	0.034139217	-0.057388691	1.6126003	0.064323643	0.14194302	1.5619847	0.07112975	-0.086970593	1.5176823	0.16326648	0.14077252	1.5609195	0.086992809	-0.00081698874	1.5611781	0.16544943	0.061143186	1.4857182	0.046744356	-0.04454591	1.4693326	0.16869875	0.070224565	1.6562617	0.43580344	-0.098394804	1.7446427	0.47200833	0.17398543	1.6183342	0.439266	0.018403385	1.7491295	0.45802873	0.042593698	1.6258725	0.83175438	-0.17314428	1.5962417	0.81228784	0.1709514	1.6914763	0.88102768	-0.12180597	1.6792114	0.87542186	0.12169944	1.496129	0.94633272	-0.0032080014	1.6108052	1.3524513	-0.19229736	1.5979973	1.3523268	0.16907903	1.5246497	1.3849771	-0.018205291	1.566134	1.0332137	-0.24688256	1.5025604	1.0471761	0.24041478	1.7425352	0.85664029	-0.27430743	1.6529302	0.85316803	0.25965985
467	1.864	1.6860017	0.034125447	-0.057450419	1.6318053	0.063292901	0.14214815	1.5621208	0.071484174	-0.08686433	1.5338251	0.15920231	0.14092634	1.5613427	0.087508867	-0.00078155718	1.5778348	0.16236092	0.060951435	1.4859024	0.047205294	-0.044205645	1.4866582	0.16227551	0.070162638	1.6567133	0.4360245	-0.098691158	1.7534742	0.4741778	0.17322151	1.6197098	0.43970768	0.018281857	1.7569255	0.46067266	0.042417022	1.6309364	0.83208779	-0.17300888	1.6027626	0.81362158	0.17140934	1.6965325	0.88172884	-0.12197692	1.685213	0.87683495	0.121292	1.5017174	0.94696483	-0.0029133199	1.616528	1.3536286	-0.19214627	1.6032418	1.352917	0.16913455	1.5300004	1.3856769	-0.018187102	1.5740576	1.0339638	-0.24756646	1.5059114	1.0485096	0.23996586	1.7540466	0.86018194	-0.2734711	1.653614	0.85283997	0.26065785
